<?xml version="1.0" encoding="iso-8859-1"?>
<!-- Uploaded to: SVG Repo, www.svgrepo.com, Generator: SVG Repo Mixer Tools -->
<svg height="800px" width="800px" version="1.1" id="Layer_1" xmlns="http://www.w3.org/2000/svg" xmlns:xlink="http://www.w3.org/1999/xlink" 
	 viewBox="0 0 512 512" xml:space="preserve">
<polygon style="fill:#F58E42;" points="348.596,8.17 337.702,73.532 256,106.213 174.298,73.532 163.404,8.17 "/>
<path style="fill:#B34FCC;" d="M413.957,236.936v234.213c0,17.974-14.706,32.681-32.681,32.681H130.723
	c-17.974,0-32.681-14.706-32.681-32.681V236.936c0-35.949,29.413-65.362,65.362-65.362V95.319h185.191v76.255
	C384.545,171.574,413.957,200.987,413.957,236.936z"/>
<path style="fill:#8811A4;" d="M348.596,73.532c9.02,0,16.34,7.321,16.34,16.34s-7.32,16.34-16.34,16.34H163.404
	c-9.02,0-16.34-7.321-16.34-16.34c0-4.51,1.83-8.595,4.793-11.547c2.952-2.963,7.037-4.793,11.547-4.793h10.894h163.404H348.596z"/>
<polygon style="fill:#F1ECDE;" points="381.277,405.787 381.277,438.468 130.723,438.468 130.723,269.617 163.404,269.617 
	179.745,280.511 196.085,269.617 381.277,269.617 381.277,373.106 370.383,389.447 "/>
<g>
	<circle style="fill:#A59D8C;" cx="312.778" cy="362.213" r="8.17"/>
	<circle style="fill:#A59D8C;" cx="285.543" cy="384" r="8.17"/>
	<circle style="fill:#A59D8C;" cx="199.212" cy="324.085" r="8.17"/>
</g>
<g>
	<path style="fill:#440852;" d="M356.766,163.855v-50.878c9.509-3.373,16.34-12.455,16.34-23.105
		c0-13.515-10.995-24.511-24.511-24.511h-1.248l9.308-55.848c0.394-2.369-0.272-4.792-1.825-6.624
		C353.278,1.057,350.998,0,348.596,0H163.404c-2.402,0-4.682,1.057-6.234,2.889c-1.552,1.832-2.22,4.255-1.825,6.624l9.308,55.848
		h-1.248c-13.516,0-24.511,10.996-24.511,24.511c0,10.651,6.831,19.733,16.34,23.105v50.878
		c-36.715,4.077-65.362,35.296-65.362,73.081v234.213c0,22.526,18.325,40.851,40.851,40.851h250.553
		c22.526,0,40.851-18.325,40.851-40.851V236.936C422.128,199.152,393.481,167.933,356.766,163.855z M173.049,16.34h165.902
		l-8.17,49.021H181.22L173.049,16.34z M405.787,471.149c0,13.515-10.995,24.511-24.511,24.511H130.723
		c-13.516,0-24.511-10.996-24.511-24.511V236.936c0-31.535,25.656-57.191,57.191-57.191c4.512,0,8.17-3.657,8.17-8.17v-57.191
		h24.511c4.512,0,8.17-3.657,8.17-8.17s-3.658-8.17-8.17-8.17h-32.681c-4.506,0-8.17-3.665-8.17-8.17s3.665-8.17,8.17-8.17h174.295
		c0.037,0,10.897,0,10.897,0c4.506,0,8.17,3.665,8.17,8.17s-3.665,8.17-8.17,8.17h-119.83c-4.512,0-8.17,3.657-8.17,8.17
		s3.658,8.17,8.17,8.17h111.66v57.191c0,4.513,3.658,8.17,8.17,8.17c31.536,0,57.191,25.657,57.191,57.191V471.149z"/>
	<path style="fill:#440852;" d="M196.085,179.745h119.83c4.512,0,8.17-3.657,8.17-8.17s-3.658-8.17-8.17-8.17h-119.83
		c-4.512,0-8.17,3.657-8.17,8.17S191.573,179.745,196.085,179.745z"/>
	<path style="fill:#440852;" d="M381.277,261.447H196.085c-1.612,0-3.19,0.477-4.532,1.373l-11.809,7.872l-11.809-7.873
		c-1.342-0.894-2.919-1.373-4.532-1.373h-32.681c-4.512,0-8.17,3.657-8.17,8.17v168.851c0,4.513,3.658,8.17,8.17,8.17h250.553
		c4.512,0,8.17-3.657,8.17-8.17v-32.681c0-1.612-0.477-3.191-1.373-4.532l-7.873-11.809l7.873-11.809
		c0.894-1.341,1.373-2.919,1.373-4.532V269.616C389.447,265.104,385.789,261.447,381.277,261.447z M373.106,370.632l-9.521,14.281
		c-1.83,2.745-1.83,6.319,0,9.064l9.521,14.282v22.039H138.894V277.787h22.037l14.283,9.521c2.745,1.83,6.319,1.83,9.064,0
		l14.283-9.521h174.547V370.632z"/>
</g>
</svg>